<svg width="47" height="27" viewBox="0 0 47 27" fill="none" xmlns="http://www.w3.org/2000/svg">
<path d="M9.8412 13.6599C10.0357 13.7936 10.5463 14.3529 10.9718 14.9121C13.5006 18.1216 17.0627 20.6625 20.2357 21.5257C21.3299 21.8296 21.6581 21.8661 23.4574 21.8661C25.1838 21.8661 25.6093 21.8296 26.5454 21.5743C28.527 21.0515 30.302 20.1641 32.1499 18.7781C33.1346 18.0365 35.554 15.6051 36.2712 14.6325C37.1952 13.3681 37.0128 13.4167 41.3652 13.4167C44.3437 13.4167 45.1826 13.4532 45.4379 13.5869C46.5077 14.1462 46.8603 15.5808 46.1916 16.6628C45.7053 17.4651 45.6081 17.4773 42.2405 17.5502C39.7239 17.611 39.1161 17.6597 38.727 17.8299C38.4596 17.9514 37.5478 18.7295 36.6603 19.5927C34.9339 21.2704 34.3018 21.8053 33.0131 22.7049C31.1773 23.9693 28.8553 25.0148 26.8736 25.4647C25.3418 25.8172 22.6429 25.9023 21.0867 25.647C17.2936 25.0148 13.8166 23.0575 10.3275 19.5927C8.28506 17.5502 8.46742 17.6232 4.79591 17.5502C2.71701 17.5138 1.67147 17.4408 1.50127 17.3436C1.02714 17.0639 0.613787 16.4682 0.528685 15.909C0.394955 15.0094 0.553 14.5109 1.16087 13.9274L1.69579 13.4167H5.59829C9.31844 13.4167 9.51295 13.4289 9.8412 13.6599Z" fill="#171717"/>
<path d="M26.363 0.712336C30.071 1.41746 33.706 3.58147 37.1344 7.10709C37.7301 7.71496 38.4109 8.31067 38.6541 8.42008C38.9945 8.57813 39.6996 8.62676 42.1797 8.67539C45.6202 8.74833 45.681 8.76049 46.2038 9.59934C46.8603 10.6692 46.5077 12.1281 45.4622 12.6508C44.9394 12.9183 44.8178 12.9305 41.353 12.9305C37.0979 12.9305 37.2803 12.9791 36.1983 11.5567C34.6422 9.51424 32.1742 7.32592 30.0588 6.12235C28.9647 5.49017 27.3356 4.85799 26.1077 4.59052C25.0136 4.33522 22.2417 4.31091 21.2083 4.52974C17.2693 5.35644 13.5978 7.88516 10.6679 11.7633C9.78041 12.9548 9.78041 12.9548 5.40377 12.9061L5.39458 12.906C1.78085 12.8697 1.75623 12.8694 1.34323 12.5779C0.224752 11.7755 0.224752 9.83033 1.34323 9.02795C1.74442 8.74833 1.82952 8.73618 4.8567 8.67539C7.59209 8.62676 8.00544 8.59029 8.38232 8.38361C8.61331 8.26204 9.52511 7.45966 10.3883 6.6208C13.6221 3.47205 16.4913 1.73355 19.8102 0.906853C21.9013 0.384087 24.2476 0.311144 26.363 0.712336Z" fill="#171717"/>
<path d="M25.9861 5.42938C27.2262 5.86705 28.1015 6.41412 29.0376 7.35024C32.3323 10.6449 32.2228 15.8847 28.7945 19.0577C27.3599 20.3829 25.2932 21.1974 23.3358 21.1974C20.0169 21.1974 16.9046 19.0334 15.7375 15.909C14.4975 12.6387 15.6281 8.73617 18.4 6.65727C19.3482 5.93999 19.9075 5.66037 21.0259 5.30781C21.8162 5.06466 22.1444 5.02819 23.5182 5.06466C24.8433 5.10113 25.2445 5.16192 25.9861 5.42938Z" fill="#171717"/>
<path d="M22.3633 9.39268C21.3543 9.70877 20.4182 10.499 19.9075 11.4716C19.6766 11.9214 19.6279 12.201 19.6279 13.1128C19.6279 14.0976 19.6644 14.2678 19.9805 14.8513C20.868 16.4439 22.6916 17.2098 24.4301 16.7236C25.5485 16.3953 26.6792 15.2647 26.9831 14.1462C27.1655 13.5019 27.129 12.432 26.898 11.7634C26.6062 10.9002 25.4391 9.76956 24.5638 9.48994C23.8952 9.27111 22.8983 9.23464 22.3633 9.39268Z" fill="#97E4FE"/>
</svg>
